<svg width="20" height="20" viewBox="0 0 20 20" fill="none" xmlns="http://www.w3.org/2000/svg">
  <path d="M10.9303 3.72091C11.9536 3.72091 12.7908 2.8837 12.7908 1.86043C12.7907 0.837209 11.9535 0 10.9303 0C9.90708 0 9.06982 0.837209 9.06982 1.86048C9.06982 2.88375 9.90703 3.72091 10.9303 3.72091Z" fill="#0E1F34"/>
  <path d="M16.0466 10.6976V8.83717C14.3256 8.83717 12.8373 7.90695 12 6.55808L11.1163 5.06973C10.7908 4.51163 10.1861 4.18604 9.53494 4.18604C9.3024 4.18604 9.06981 4.23256 8.83727 4.32557L3.95355 6.32558V10.6977H5.81403V7.5814L7.44192 6.88372L4.88377 20H6.83726L8.46515 12.5581L10.4652 14.4186V20H12.3256V12.9767L10.4187 11.0698L10.9768 8.27907C12.1861 9.76743 14.0001 10.6976 16.0466 10.6976Z" fill="#0E1F34"/>
</svg>
