<svg width="17" height="18" viewBox="0 0 17 18" fill="none" xmlns="http://www.w3.org/2000/svg">
  <path d="M8.71418 6.5V9V6.5ZM8.71418 9V11.5V9ZM8.71418 9H11.1428H8.71418ZM8.71418 9H6.28561H8.71418ZM15.9999 9C15.9999 9.98491 15.8114 10.9602 15.4453 11.8701C15.0792 12.7801 14.5425 13.6069 13.866 14.3033C13.1894 14.9997 12.3862 15.5522 11.5023 15.9291C10.6184 16.306 9.67095 16.5 8.71418 16.5C7.75741 16.5 6.81 16.306 5.92606 15.9291C5.04212 15.5522 4.23894 14.9997 3.5624 14.3033C2.88586 13.6069 2.3492 12.7801 1.98306 11.8701C1.61692 10.9602 1.42847 9.98491 1.42847 9C1.42847 7.01088 2.19607 5.10322 3.5624 3.6967C4.92874 2.29018 6.78189 1.5 8.71418 1.5C10.6465 1.5 12.4996 2.29018 13.866 3.6967C15.2323 5.10322 15.9999 7.01088 15.9999 9Z" stroke="black" stroke-width="2" stroke-linecap="round" stroke-linejoin="round"/>
</svg>
